<svg xmlns="http://www.w3.org/2000/svg" viewBox="0 0 13.99993896484375 14" fill="currentColor"><path d="M3.1377 1.20313q-0.89893 0.15381-1.44239 0.82714-0.18457 0.22217-0.29052 0.44776-0.10254 0.22559-0.18799 0.51953-0.02734 0.10938-0.03418 0.19482-0.00684 0.08203-0.00684 0.30762 0 0.28027 0.02734 0.43408 0.02734 0.15381 0.1128 0.3794 0.18115 0.48877 0.55713 0.86132 0.37939 0.36914 0.88525 0.53663l0.16748 0.0581 0 6.64795 0.04102 0.08545q0.04443 0.06836 0.12646 0.15381 0.08545 0.08203 0.16065 0.12646 0.07861 0.04102 0.24609 0.04102 0.16748 0 0.24268-0.04102 0.07861-0.04443 0.16064-0.12646 0.08545-0.08545 0.12988-0.15381l0.04102-0.08545 0-6.64795 0.16748-0.0581q0.50586-0.16748 0.88184-0.53663 0.37939-0.37256 0.56054-0.86132 0.08545-0.22559 0.11279-0.3794 0.02734-0.15381 0.02735-0.43408 0-0.28027-0.02735-0.43408-0.02734-0.15381-0.11279-0.3794-0.2085-0.55713-0.6665-0.95019-0.45459-0.39307-1.04248-0.51953-0.14014-0.02734-0.42725-0.03418-0.28711-0.00684-0.41015 0.02051z m0.65625 1.1621q0.28027 0.07178 0.52294 0.31788 0.24609 0.24268 0.31788 0.52294 0.02734 0.12646 0.02734 0.29395 0 0.16748-0.02734 0.28027-0.07178 0.29395-0.3042 0.53321-0.229 0.23584-0.53662 0.32129-0.11279 0.02734-0.29395 0.02734-0.18115 0-0.29395-0.02734-0.30762-0.08545-0.54003-0.32129-0.229-0.23926-0.30079-0.53321-0.02734-0.11279-0.02734-0.28027 0-0.16748 0.02734-0.29395 0.05811-0.22559 0.22559-0.43408 0.16748-0.2085 0.40674-0.32129 0.34863-0.18115 0.79639-0.08545z m6.60693-0.01367q-0.15381 0.01367-0.27344 0.11963-0.11621 0.10596-0.17432 0.23242-0.02734 0.06836-0.02734 0.15381 0 0.08203 0 0.38281 0 0.30078 0.00684 0.3794 0.00684 0.0752 0.04101 0.14014 0.0376 0.06152 0.11963 0.14697 0.08545 0.08203 0.16065 0.12646 0.07861 0.04102 0.24609 0.04102 0.16748 0 0.24268-0.04102 0.07861-0.04443 0.16064-0.12646 0.08545-0.08545 0.11963-0.14697 0.0376-0.06494 0.04443-0.14014 0.00684-0.07861 0.00684-0.38623 0-0.34863-0.01367-0.45459-0.01367-0.10596-0.10596-0.22217-0.09229-0.11963-0.23926-0.17432-0.14697-0.05811-0.31445-0.03076z m-0.04102 2.91211q-0.12647 0.02734-0.23926 0.1333-0.10938 0.10596-0.16748 0.23242-0.01367 0.06836-0.0205 0.14698-0.00684 0.0752-0.00684 0.34863 0 0.27344 0.00684 0.35205 0.00684 0.0752 0.0205 0.14356 0.08545 0.21191 0.29395 0.3247 0.09912 0.04102 0.25293 0.04102 0.15381 0 0.25293-0.04102 0.2085-0.11279 0.29394-0.3247 0.01367-0.06836 0.02051-0.14356 0.00684-0.07861 0.00684-0.35205 0-0.27344-0.00684-0.34863-0.00684-0.07861-0.02051-0.14698-0.08545-0.19824-0.28369-0.30078-0.19483-0.10596-0.40332-0.06494z m-0.22558 2.93945q-0.89551 0.15381-1.43897 0.82715-0.18457 0.22217-0.29052 0.44776-0.10254 0.22559-0.18799 0.51953-0.02734 0.10938-0.03418 0.19482-0.00684 0.08203-0.00684 0.30762 0 0.28027 0.02734 0.43408 0.02734 0.15381 0.1128 0.3794 0.16748 0.4751 0.52978 0.84082 0.36572 0.36231 0.84082 0.52978 0.22559 0.08545 0.3794 0.11279 0.15381 0.02734 0.43408 0.02735 0.28027 0 0.43408-0.02735 0.15381-0.02734 0.3794-0.11279 0.4751-0.16748 0.8374-0.52978 0.36572-0.36572 0.5332-0.84082 0.08545-0.22559 0.11279-0.3794 0.02734-0.15381 0.02735-0.43408 0-0.28027-0.02735-0.43408-0.02734-0.15381-0.11279-0.3794-0.2085-0.55713-0.6665-0.95019-0.45459-0.39307-1.04248-0.51953-0.14014-0.02734-0.42725-0.03418-0.28711-0.00684-0.41357 0.0205z m0.65966 1.16211q0.28027 0.07178 0.52295 0.31788 0.24609 0.24268 0.31788 0.52294 0.02734 0.12647 0.02734 0.29395 0 0.16748-0.02734 0.28027-0.07178 0.29395-0.3042 0.53321-0.229 0.23584-0.53663 0.32129-0.11279 0.02734-0.29394 0.02734-0.18115 0-0.29395-0.02734-0.30762-0.08545-0.54003-0.32129-0.229-0.23926-0.30079-0.53321-0.02734-0.11279-0.02734-0.28027 0-0.16748 0.02734-0.29395 0.05811-0.22559 0.22559-0.43408 0.16748-0.2085 0.40674-0.32129 0.34863-0.18115 0.79638-0.08545z"/></svg>
