<svg xmlns="http://www.w3.org/2000/svg" viewBox="0 0 13.99993896484375 14" fill="currentColor"><path d="M2.60449 1.20313q-0.50586 0.08545-0.87842 0.43749-0.36914 0.34863-0.50927 0.86475-0.02734 0.08545-0.02735 0.71436l-0.01367 3.78027 0.01367 3.78027q0 0.62891 0.02735 0.71436 0.14014 0.48877 0.46826 0.82031 0.33154 0.32813 0.82031 0.46826 0.08545 0.02734 0.71436 0.02735l3.78027 0.01367 3.78027-0.01367q0.62891 0 0.71436-0.02735 0.48877-0.14014 0.81689-0.46826 0.33154-0.33154 0.47168-0.82031 0.02734-0.08545 0.02735-0.71436l0.01367-3.78027-0.01367-3.78027q0-0.62891-0.02735-0.71436-0.12646-0.48877-0.458-0.81689-0.32813-0.33154-0.80323-0.47168l-0.14013-0.04102-4.32715 0q-4.3374 0-4.4502 0.02734z m3.82129 5.79687l0 4.67578-1.76367 0q-1.75 0-1.84912-0.02734-0.29395-0.05811-0.43408-0.33496l-0.04102-0.09913 0-8.42871 0.04102-0.09912q0.07178-0.14014 0.18798-0.229 0.11963-0.09229 0.25977-0.11963 0.08545 0 1.83545-0.01367l1.76367 0 0 4.67578z m4.8877-4.62109q0.2085 0.09912 0.30761 0.30761l0.04102 0.09912 0 8.42871-0.04102 0.09913q-0.14014 0.27685-0.43408 0.33496-0.09912 0.02734-1.84912 0.02734l-1.76367 0 0-9.35156 3.64014 0.01367 0.09912 0.04102z"/></svg>
