<svg xmlns="http://www.w3.org/2000/svg" viewBox="0 0 13.99993896484375 14" fill="currentColor"><path d="M6.90088 2.35156q-0.0957 0.01367-0.17432 0.05127-0.0752 0.03418-0.15381 0.12647-0.0752 0.08887-0.11279 0.16748-0.03418 0.0752-0.03418 0.32812l0 3.40088-3.66748 0-0.08545 0.04102q-0.22217 0.11279-0.30078 0.33838-0.0752 0.22217 0.00684 0.43408 0.05811 0.0957 0.14013 0.18115 0.08545 0.08203 0.16748 0.11963 0.08545 0.03418 0.33838 0.03418l3.40088 0 0 3.40088q0 0.25293 0.03418 0.33838 0.0376 0.08203 0.11963 0.16748 0.08545 0.08203 0.18799 0.1333 0.10596 0.04785 0.23242 0.04785 0.12646 0 0.229-0.04785 0.10596-0.05127 0.18799-0.1333 0.08545-0.08545 0.11963-0.16748 0.0376-0.08545 0.0376-0.33838l0-3.40088 3.40088 0q0.25293 0 0.33496-0.03418 0.08545-0.0376 0.16748-0.11963 0.08545-0.08545 0.1333-0.18799 0.05127-0.10596 0.05127-0.23242 0-0.12646-0.04102-0.23926-0.09912-0.19482-0.29394-0.29394l-0.08545-0.04102-3.66748 0 0-3.38721q0-0.2666-0.02734-0.32128-0.07178-0.19824-0.25293-0.30079-0.18115-0.10596-0.39307-0.06494z"/></svg>
