<svg xmlns="http://www.w3.org/2000/svg" viewBox="0 0 13.99993896484375 14" fill="currentColor"><path d="M2.2251 2.35156q-0.18115 0.02734-0.32129 0.18115-0.14014 0.15381-0.15381 0.35206 0 0.14014 0.06152 0.28027 0.06494 0.14014 0.19141 0.22217l0.02734 0.02734q0.05469 0.04443 0.2085 0.05811 0.22559 0.01367 1.03564 0.02734l7.45118 0q0.81006-0.01367 1.03564-0.02734 0.15381-0.01367 0.2085-0.05811l0.02734-0.02734q0.21191-0.14014 0.24609-0.36914 0.03418-0.23242-0.09912-0.43409-0.1333-0.20508-0.38281-0.23242-0.11279-0.02734-4.7749-0.02734-4.66211 0-4.76123 0.02734z m-0.09571 4.10156q-0.09912 0.04443-0.1914 0.12989-0.08887 0.08203-0.12647 0.16064-0.03418 0.0752-0.04101 0.11621-0.00684 0.04102-0.00684 0.14014 0 0.15381 0.04102 0.25293 0.11279 0.2085 0.3247 0.29394l0.09571 0.02735 9.5498 0 0.09571-0.02735q0.21192-0.08545 0.3247-0.29394 0.04102-0.09912 0.04102-0.25293 0-0.09912-0.00684-0.14014-0.00684-0.04102-0.03418-0.11279-0.04443-0.08203-0.13672-0.16406-0.08887-0.08545-0.17431-0.11963-0.08203-0.0376-0.69727-0.0376l-4.18701 0-4.18701 0q-0.62891 0.01367-0.6836 0.02734z m0.06836 4.06055q-0.08545 0.02734-0.18457 0.09229-0.0957 0.06152-0.15039 0.1333-0.12646 0.16748-0.11279 0.38623 0.01367 0.21533 0.18115 0.36914 0.12646 0.12646 0.29395 0.15381 0.11279 0.02734 4.7749 0.02734 4.66211 0 4.7749-0.02734 0.16748-0.02734 0.29395-0.15381 0.22217-0.22559 0.16748-0.51953-0.05469-0.29395-0.35205-0.43408l-0.08203-0.02735-4.76123-0.01367q-4.77148 0-4.84327 0.01367z"/></svg>
