<svg xmlns="http://www.w3.org/2000/svg" viewBox="0 0 13.99993896484375 14" fill="currentColor"><path d="M7.7417 0.60156q-0.16748 0.02734-0.33496 0.1128-0.09912 0.06836-2.81641 2.87109l-2.88135 2.98047q-0.35205 0.36572-0.39306 0.44775l-0.01367 0.01367q-0.09912 0.21191-0.12647 0.44776-0.04102 0.37939 0.14014 0.68701 0.18115 0.30762 0.50244 0.46143l0.04443 0.02734q0.0957 0.04443 0.19483 0.0581 0.12646 0.02734 0.51953 0.02735l3.83496 0.02734-0.57422 1.79102q-0.57422 1.79443-0.57422 1.89013-0.04102 0.25293 0.09912 0.50586 0.14014 0.25293 0.37598 0.37598 0.39307 0.18457 0.77246 0 0.12646-0.06836 0.32129-0.24951l5.59863-5.7832q0.22559-0.22559 0.30762-0.42041 0.08545-0.19482 0.08545-0.4751 0-0.32129-0.16748-0.59473-0.16748-0.27344-0.46143-0.42725l-0.04443-0.01367q-0.0957-0.05811-0.19483-0.07177-0.14014-0.02734-0.51953-0.02735l-3.84863-0.02734 0.57422-1.79102q0.57422-1.79443 0.57422-1.89013 0.04102-0.25293-0.09912-0.50586-0.14014-0.25293-0.39307-0.37598-0.24951-0.12646-0.50244-0.07178z m-0.92285 3.19239q-0.37939 1.20313-0.39307 1.32959-0.02734 0.19482 0.02051 0.3999 0.05127 0.20166 0.16064 0.36914 0.07178 0.09912 0.20508 0.21875 0.1333 0.11963 0.24268 0.17431l0.04443 0.02735q0.10938 0.05811 0.2085 0.07178 0.14014 0.01367 0.51953 0.02734l3.82129 0.01367-2.42334 2.50537q-2.41992 2.4917-2.42676 2.4917-0.00684 0 0.37598-1.20996 0.38623-1.20996 0.3999-1.33643 0.02734-0.19482-0.02393-0.39648-0.04785-0.20508-0.15722-0.35889-0.05811-0.08545-0.16407-0.19482-0.10254-0.11279-0.18798-0.15723-0.16748-0.10938-0.37598-0.16748-0.07178-0.01367-2.19775-0.02734l-2.11573 0 2.42334-2.50537q2.41992-2.4917 2.42676-2.4917 0.00684 0-0.38281 1.2168z"/></svg>
